# xmcd CD database file
#
# Track frame offsets:
#	150
#	14037
#	33195
#	60780
#	79537
#	100660
#	129515
#	151187
#	174292
#	196127
#	209760
#	230677
#
# Disc length: 3320 seconds
#
# Revision: 0
# Processed by: cddbd v1.5.1PL0 Copyright (c) Steve Scherf et al.
# Submitted via: CDex 1.51
#
DISCID=8d0cf60c
DTITLE=Blaze Foley - Live at the Austin Outhouse
DYEAR=1999
DGENRE=Country
TTITLE0=Oh Darlin'
TTITLE1=Clay Pigeons
TTITLE2=If I Could Only Fly
TTITLE3=Small Town Hero
TTITLE4=New Slow Boat to China
TTITLE5=Our Little Town
TTITLE6=Officer Norris
TTITLE7=Christian Lady Talkin' On A Bus
TTITLE8=PIcture Cards Can't Picture You
TTITLE9=Election Day
TTITLE10=Faded Loves And Memories
TTITLE11=Oooh Love
EXTD=YEAR: 1999
EXTT0=
EXTT1=
EXTT2=
EXTT3=
EXTT4=
EXTT5=
EXTT6=
EXTT7=
EXTT8=
EXTT9=
EXTT10=
EXTT11=
PLAYORDER=
